<?xml version="1.0" encoding="UTF-8" standalone="no"?>
<svg
   width="32"
   height="32"
   viewBox="0 0 32 32"
   version="1.1"
   id="svg1"
   xmlns="http://www.w3.org/2000/svg"
   xmlns:svg="http://www.w3.org/2000/svg"
   xmlns:rdf="http://www.w3.org/1999/02/22-rdf-syntax-ns#"
   xmlns:cc="http://creativecommons.org/ns#"
   xmlns:dc="http://purl.org/dc/elements/1.1/">
  <defs
     id="defs1" />
  <!-- Generator: Sketch 52.5 (67469) - http://www.bohemiancoding.com/sketch -->
  <title
     id="title1">vpn_key</title>
  <desc
     id="desc1">Created with Sketch.</desc>
  <polygon
     id="Path"
     points="24,24 0,24 0,0 24,0 "
     transform="matrix(1.3333333,0,0,1.3333333,2.2e-6,1.86e-5)"
     style="fill:none;fill-rule:evenodd;stroke:none;stroke-width:1" />
  <path
     d="M 15.613335,13.773352 C 14.680002,11.120018 12.146669,9.3333517 9.3333353,9.3333517 c -3.6799999,0 -6.6666665,2.9866663 -6.6666665,6.6666663 0,3.68 2.9866666,6.666667 6.6666665,6.666667 2.8133337,0 5.3466667,-1.786667 6.2799997,-4.44 l 0.306667,-0.893333 h 8.08 v 5.333333 h 2.666666 v -5.333333 h 2.666667 V 14.666685 H 15.920002 Z m -6.2799997,6.226666 c -2.1999999,0 -3.9999999,-1.8 -3.9999999,-4 0,-2.2 1.8,-4 3.9999999,-4 2.1999997,0 3.9999997,1.8 3.9999997,4 0,2.2 -1.8,4 -3.9999997,4 z"
     id="🔹-Secondary-Color"
     fill="#d0d0d0"
     style="fill:#ffcfef;fill-opacity:1;fill-rule:evenodd;stroke:none;stroke-width:1.33333" />
  <path
     d="m 9.3333353,6.6666851 c -5.1466665,0 -9.3333331,4.1866669 -9.3333331,9.3333329 0,5.146667 4.1866666,9.333333 9.3333331,9.333333 3.6266667,0 6.8933327,-2.106666 8.4266667,-5.333333 h 3.573333 v 5.333333 h 8 v -5.333333 h 2.666666 v -8 H 17.760002 c -1.533334,-3.2266663 -4.8,-5.3333329 -8.4266667,-5.3333329 z M 29.333335,17.333352 h -2.666667 v 5.333333 h -2.666666 v -5.333333 h -8.08 l -0.306667,0.893333 c -0.933333,2.653333 -3.466666,4.44 -6.2799997,4.44 -3.6799999,0 -6.6666665,-2.986667 -6.6666665,-6.666667 0,-3.68 2.9866666,-6.6666663 6.6666665,-6.6666663 2.8133337,0 5.3466667,1.7866663 6.2799997,4.4400003 l 0.306667,0.893333 H 29.333335 Z M 9.3333353,12.000018 c -2.1999999,0 -3.9999999,1.8 -3.9999999,4 0,2.2 1.8,4 3.9999999,4 2.1999997,0 3.9999997,-1.8 3.9999997,-4 0,-2.2 -1.8,-4 -3.9999997,-4 z m 0,5.333334 c -0.7333333,0 -1.3333333,-0.6 -1.3333333,-1.333334 0,-0.733333 0.6,-1.333333 1.3333333,-1.333333 0.7333337,0 1.3333337,0.6 1.3333337,1.333333 0,0.733334 -0.6,1.333334 -1.3333337,1.333334 z"
     id="🔹-Primary-Color"
     fill="#1d1d1d"
     style="fill:#bd34fe;fill-opacity:1;fill-rule:evenodd;stroke:none;stroke-width:1.33333" />
  <metadata
     id="metadata1">
    <rdf:RDF>
      <cc:Work
         rdf:about="">
        <dc:title>vpn_key</dc:title>
      </cc:Work>
    </rdf:RDF>
  </metadata>
</svg>
